<svg xmlns="http://www.w3.org/2000/svg" width="2500" height="2500" viewBox="126.444 2.281 589 589" id="twitter"><circle cx="420.9" cy="296.8" r="294.5" fill="#2daae1"></circle><path fill="#ffffff" d="M 609.8 179.6 c -13.9 6.2 -28.8 10.3 -44.5 12.2 c 16 -9.6 28.3 -24.8 34.1 -42.9 a 154.8 154.8 0 0 1 -49.2 18.8 c -14.1 -15.1 -34.3 -24.5 -56.6 -24.5 c -42.8 0 -77.5 34.7 -77.5 77.5 c 0 6.1 0.7 12 2 17.7 c -64.4 -3.2 -121.5 -34.1 -159.7 -80.9 c -6.7 11.4 -10.5 24.8 -10.5 39 c 0 26.9 13.7 50.6 34.5 64.5 a 77.1 77.1 0 0 1 -35.1 -9.7 v 1 c 0 37.5 26.7 68.8 62.1 76 c -6.5 1.8 -13.3 2.7 -20.4 2.7 c -5 0 -9.8 -0.5 -14.6 -1.4 c 9.9 30.8 38.5 53.2 72.4 53.8 c -26.5 20.8 -59.9 33.2 -96.2 33.2 c -6.3 0 -12.4 -0.4 -18.5 -1.1 c 34.3 22 75 34.8 118.8 34.8 c 142.5 0 220.4 -118.1 220.4 -220.4 c 0 -3.4 -0.1 -6.7 -0.2 -10 a 157.9 157.9 0 0 0 38.7 -40.2 z"></path></svg>